<svg width="172" height="52" viewBox="0 0 172 52" fill="none" xmlns="http://www.w3.org/2000/svg">
<rect y="2.88892" width="42.6667" height="44.7778" rx="5.88506" fill="url(#paint0_linear_1_38)"/>
<path d="M29.0464 14.325V19.785H19.1764V24.125H26.4564V29.34H19.1764V39H12.3164V14.325H29.0464Z" fill="white"/>
<path d="M38.2529 15.4446C29.9095 17.49 26.5705 23.3991 26.5705 25.6718C26.2808 29.0808 26.7443 37.9444 27.4396 32.4899C28.1349 27.0354 35.0662 17.4332 38.2529 15.4446Z" fill="white"/>
<path d="M2.94238 39C10.2429 37.1119 13.1645 31.6574 13.1645 29.5595C13.418 26.4127 13.0124 18.2309 12.404 23.2659C11.7956 28.3008 5.73078 37.1644 2.94238 39Z" fill="white"/>
<path d="M54.82 19.82V23.845H62.695V29.06H54.82V33.505H63.745V39H47.96V14.325H63.745V19.82H54.82ZM76.4448 39.245C73.5748 39.245 71.2181 38.5683 69.3748 37.215C67.5315 35.8383 66.5398 33.8783 66.3998 31.335H73.7148C73.7848 32.1983 74.0415 32.8283 74.4848 33.225C74.9281 33.6217 75.4998 33.82 76.1998 33.82C76.8298 33.82 77.3431 33.6683 77.7398 33.365C78.1598 33.0383 78.3698 32.595 78.3698 32.035C78.3698 31.3117 78.0315 30.7517 77.3548 30.355C76.6781 29.9583 75.5815 29.515 74.0648 29.025C72.4548 28.4883 71.1481 27.975 70.1448 27.485C69.1648 26.9717 68.3015 26.2367 67.5548 25.28C66.8315 24.3 66.4698 23.0283 66.4698 21.465C66.4698 19.8783 66.8665 18.525 67.6598 17.405C68.4531 16.2617 69.5498 15.3983 70.9498 14.815C72.3498 14.2317 73.9365 13.94 75.7098 13.94C78.5798 13.94 80.8665 14.6167 82.5698 15.97C84.2965 17.3 85.2181 19.1783 85.3348 21.605H77.8798C77.8565 20.8583 77.6231 20.2983 77.1798 19.925C76.7598 19.5517 76.2115 19.365 75.5348 19.365C75.0215 19.365 74.6015 19.5167 74.2748 19.82C73.9481 20.1233 73.7848 20.555 73.7848 21.115C73.7848 21.5817 73.9598 21.99 74.3098 22.34C74.6831 22.6667 75.1381 22.9583 75.6748 23.215C76.2115 23.4483 77.0048 23.7517 78.0548 24.125C79.6181 24.6617 80.9015 25.1983 81.9048 25.735C82.9315 26.2483 83.8065 26.9833 84.5298 27.94C85.2765 28.8733 85.6498 30.0633 85.6498 31.51C85.6498 32.98 85.2765 34.2983 84.5298 35.465C83.8065 36.6317 82.7448 37.5533 81.3448 38.23C79.9681 38.9067 78.3348 39.245 76.4448 39.245ZM107.424 14.325V19.785H100.844V39H93.9839V19.785H87.4739V14.325H107.424ZM116.822 14.325V39H109.962V14.325H116.822ZM144.739 14.325L136.234 39H127.449L118.909 14.325H126.259L131.859 32.14L137.424 14.325H144.739ZM162.486 34.975H153.736L152.406 39H145.196L154.191 14.325H162.101L171.061 39H163.816L162.486 34.975ZM160.771 29.725L158.111 21.745L155.486 29.725H160.771Z" fill="#222222"/>
<path d="M132 3L134.431 9.44943L141 11.8359L134.431 14.2224L132 20.6719L129.569 14.2224L123 11.8359L129.569 9.44943L132 3Z" fill="url(#paint1_linear_1_38)"/>
<defs>
<linearGradient id="paint0_linear_1_38" x1="-6.62069" y1="-1.44442" x2="45.3705" y2="51.5121" gradientUnits="userSpaceOnUse">
<stop stop-color="#FF006B"/>
<stop offset="1" stop-color="#0C66EE"/>
</linearGradient>
<linearGradient id="paint1_linear_1_38" x1="126" y1="4.47266" x2="137.732" y2="19.4098" gradientUnits="userSpaceOnUse">
<stop stop-color="#EC8220"/>
<stop offset="1" stop-color="#E0B9FF"/>
</linearGradient>
</defs>
</svg>
